<svg viewBox="0 0 32 32" xmlns="http://www.w3.org/2000/svg">
  <path d="M16,28.2 L14.1,26.5 C7.2,20.2 2,15.5 2,9.8 C2,5.1 5.7,1.4 10.4,1.4 C13,1.4 15.5,2.6 17,4.7 C18.5,2.6 21,1.4 23.6,1.4 C28.3,1.4 32,5.1 32,9.8 C32,15.5 26.8,20.2 19.9,26.5 L18,28.2 L16,30 L16,28.2 Z" fill="#D32F2F"/>
  <path d="M4,10 C4,10 8,14 16,14 C24,14 28,10 28,10" fill="none" stroke="white" stroke-width="1.5" stroke-linecap="round" opacity="0.6"/>
  <path d="M2,16 C2,16 10,24 16,24 C22,24 30,16 30,16" fill="none" stroke="#B71C1C" stroke-width="1" stroke-linecap="round" opacity="0.4"/>
</svg>
